<svg xmlns="http://www.w3.org/2000/svg" version="1.1" xmlns:xlink="http://www.w3.org/1999/xlink" xmlns:svgjs="http://svgjs.dev/svgjs" width="1440" height="560" preserveAspectRatio="none" viewBox="0 0 1440 560"><g mask="url(&quot;#SvgjsMask1012&quot;)" fill="none"><rect width="1440" height="560" x="0" y="0" fill="rgba(242, 245, 250, 1)"></rect><path d="M1097.17 110.51 a174.45 174.45 0 1 0 348.9 0 a174.45 174.45 0 1 0 -348.9 0z" fill="rgba(0, 85, 255, 0.2)" class="triangle-float2"></path><path d="M176.853,134.106C194.519,134.381,214.531,132.464,223.299,117.125C232.027,101.854,223.045,83.95,214.216,68.738C205.436,53.61,194.295,38.411,176.853,37.102C157.374,35.64,137.867,45.247,128.325,62.292C118.968,79.007,122.117,99.847,132.842,115.719C142.383,129.839,159.814,133.841,176.853,134.106" fill="rgba(0, 85, 255, 0.2)" class="triangle-float2"></path><path d="M934.608,652.247C974.202,650.659,1005.758,624.593,1027.298,591.333C1051.482,553.99,1071.526,509.917,1052.975,469.479C1031.676,423.051,985.656,387.472,934.608,389.283C885.761,391.015,852.052,433.798,829.942,477.39C810.234,516.246,805.699,561.942,828.075,599.325C849.902,635.79,892.144,653.95,934.608,652.247" fill="rgba(0, 85, 255, 0.2)" class="triangle-float3"></path><path d="M834.186,203.842C859.593,202.994,878.107,182.513,890.459,160.294C902.383,138.845,908.394,113.295,896.436,91.864C884.218,69.966,859.254,60.077,834.186,59.438C807.768,58.764,779.823,65.908,766.183,88.543C752.188,111.766,757.23,140.927,771.004,164.282C784.534,187.221,807.569,204.731,834.186,203.842" fill="rgba(0, 85, 255, 0.2)" class="triangle-float3"></path><path d="M1513.285,565.545C1570.83,567.352,1628.531,546.979,1659.924,498.718C1694.236,445.971,1704.831,376.061,1671.097,322.943C1639.08,272.528,1573.007,267.709,1513.285,267.816C1453.826,267.923,1386.742,272.342,1356.454,323.509C1325.809,375.279,1349.059,439.497,1381.773,489.985C1411.24,535.461,1459.124,563.844,1513.285,565.545" fill="rgba(0, 85, 255, 0.2)" class="triangle-float1"></path><path d="M120.287,695.813C167.198,696.896,202.601,657.975,225.271,616.892C247.038,577.446,254.616,530.724,233.284,491.041C210.848,449.305,167.663,420.714,120.287,421.597C74.227,422.455,35.232,454.054,14.356,495.12C-4.661,532.528,3.788,575.119,23.376,612.231C44.718,652.665,74.578,694.758,120.287,695.813" fill="rgba(0, 85, 255, 0.2)" class="triangle-float2"></path></g><defs><mask id="SvgjsMask1012"><rect width="1440" height="560" fill="#ffffff"></rect></mask><style>
                @keyframes float1 {
                    0%{transform: translate(0, 0)}
                    50%{transform: translate(-10px, 0)}
                    100%{transform: translate(0, 0)}
                }

                .triangle-float1 {
                    animation: float1 5s infinite;
                }

                @keyframes float2 {
                    0%{transform: translate(0, 0)}
                    50%{transform: translate(-5px, -5px)}
                    100%{transform: translate(0, 0)}
                }

                .triangle-float2 {
                    animation: float2 4s infinite;
                }

                @keyframes float3 {
                    0%{transform: translate(0, 0)}
                    50%{transform: translate(0, -10px)}
                    100%{transform: translate(0, 0)}
                }

                .triangle-float3 {
                    animation: float3 6s infinite;
                }
            </style></defs></svg>